<?xml version="1.0" standalone="no"?>
<!DOCTYPE svg PUBLIC "-//W3C//DTD SVG 20010904//EN"
 "http://www.w3.org/TR/2001/REC-SVG-20010904/DTD/svg10.dtd">
<svg version="1.0" xmlns="http://www.w3.org/2000/svg"
 width="512.000000pt" height="512.000000pt" viewBox="0 0 512.000000 512.000000"
 preserveAspectRatio="xMidYMid meet">
<metadata>
Created by potrace 1.11, written by Peter Selinger 2001-2013
</metadata>
<g transform="translate(0.000000,512.000000) scale(0.100000,-0.100000)"
fill="#000000" stroke="none">
<path d="M2545 3889 c3 -4 -6 -10 -19 -13 -24 -6 -41 -45 -34 -77 11 -50 103
-66 123 -21 5 12 13 22 17 22 3 0 3 14 -2 31 -9 32 -39 61 -52 53 -5 -3 -8 -1
-8 4 0 5 -7 9 -15 9 -8 0 -12 -4 -10 -8z"/>
<path d="M1268 3878 c-16 -5 -28 -15 -29 -21 0 -7 -3 -24 -5 -38 -3 -17 3 -32
18 -46 27 -24 68 -36 68 -20 0 6 3 8 6 4 3 -3 15 2 26 12 28 27 27 76 -3 100
-27 23 -41 24 -81 9z"/>
<path d="M1884 3871 c-29 -24 -29 -72 -2 -98 22 -20 92 -38 82 -21 -3 4 -1 8
4 8 5 0 16 10 24 23 41 64 -49 137 -108 88z"/>
<path d="M3152 3877 c-12 -7 -19 -16 -16 -20 4 -4 3 -7 -3 -7 -6 0 -13 -9 -16
-20 -3 -11 -1 -20 5 -20 5 0 7 -4 4 -9 -4 -5 8 -21 25 -35 23 -20 35 -24 48
-16 10 5 21 7 24 4 3 -4 15 8 26 26 16 27 17 37 8 59 -22 50 -59 63 -105 38z"/>
<path d="M3795 3881 c-11 -5 -24 -6 -29 -3 -5 3 -6 0 -2 -6 3 -6 2 -13 -4 -17
-6 -4 -8 -11 -5 -16 4 -5 2 -9 -4 -9 -7 0 -7 -9 0 -29 9 -26 29 -41 70 -54 17
-6 59 26 59 44 0 6 4 8 8 5 4 -2 8 8 7 22 0 18 -10 35 -29 50 -32 24 -40 25
-71 13z"/>
<path d="M3783 3246 c-43 -37 -47 -68 -11 -105 25 -26 33 -28 60 -21 30 9 60
39 52 52 -2 4 0 9 6 13 7 4 4 17 -7 36 -15 26 -25 31 -49 28 -4 0 -10 4 -14
11 -5 8 -17 3 -37 -14z"/>
<path d="M1260 3242 c-14 -9 -26 -26 -28 -36 -4 -20 16 -66 33 -78 13 -10 75
-6 75 4 0 4 6 8 13 8 8 0 14 6 15 13 0 6 3 21 5 33 7 27 -36 74 -66 74 -12 0
-33 -8 -47 -18z"/>
<path d="M1879 3231 c-55 -69 39 -150 104 -88 19 18 22 28 17 54 -10 43 -29
59 -68 59 -24 0 -39 -7 -53 -25z"/>
<path d="M2516 3245 c-22 -16 -30 -82 -13 -99 18 -18 77 -37 77 -25 0 6 4 8 8
5 5 -3 16 4 25 15 22 25 23 85 1 93 -8 3 -13 9 -11 13 9 14 -68 13 -87 -2z"/>
<path d="M3149 3247 c-9 -6 -19 -23 -23 -35 -9 -28 11 -82 30 -82 8 0 14 -4
14 -9 0 -13 57 4 76 23 8 9 12 20 9 26 -3 5 -2 10 4 10 13 0 -3 46 -22 63 -17
17 -69 19 -88 4z"/>
<path d="M1254 2608 c-11 -13 -19 -33 -18 -45 1 -13 2 -30 3 -38 0 -8 8 -15
16 -15 8 0 15 -4 15 -10 0 -17 56 -11 79 9 12 11 22 22 22 25 -1 3 0 9 0 14 7
42 -27 81 -72 82 -14 0 -34 -10 -45 -22z"/>
<path d="M1881 2610 c-13 -11 -20 -20 -16 -20 4 0 2 -6 -4 -14 -8 -10 -9 -16
-1 -21 5 -3 10 -13 10 -21 0 -24 22 -39 61 -42 41 -4 58 12 68 61 14 62 -66
100 -118 57z"/>
<path d="M2522 2617 c-12 -7 -19 -16 -16 -20 4 -4 1 -7 -6 -7 -19 0 -5 -69 17
-86 44 -33 113 -2 113 50 0 18 -6 40 -13 50 -16 22 -66 29 -95 13z"/>
<path d="M3146 2614 c-41 -40 -20 -118 32 -122 32 -3 72 16 72 35 0 7 5 13 10
13 7 0 7 6 1 19 -6 10 -7 22 -3 25 11 12 -41 46 -70 46 -15 0 -34 -7 -42 -16z"/>
<path d="M3769 2611 c-43 -45 -6 -125 54 -119 36 3 53 16 66 51 6 16 6 28 -2
36 -6 6 -7 11 -3 11 5 0 -3 9 -17 20 -29 23 -75 24 -98 1z"/>
<path d="M1288 1998 c-16 -5 -28 -14 -28 -19 0 -6 -4 -8 -8 -5 -4 2 -14 -4
-21 -16 -9 -14 -9 -18 -1 -13 9 5 10 1 6 -12 -7 -22 29 -77 45 -68 5 4 9 2 9
-4 0 -7 9 -7 29 0 27 9 47 36 53 69 3 21 -20 60 -37 60 -7 0 -15 4 -17 9 -1 4
-15 4 -30 -1z"/>
<path d="M1908 2002 c-10 -2 -18 -7 -18 -11 0 -4 -9 -17 -20 -29 -12 -12 -16
-23 -10 -27 6 -3 10 -15 10 -26 0 -24 26 -53 40 -44 5 3 10 2 10 -4 0 -7 9 -7
28 1 38 16 41 20 52 57 8 29 6 36 -16 56 -27 25 -50 33 -76 27z"/>
<path d="M3200 2001 c0 -6 -7 -8 -15 -5 -8 4 -21 1 -29 -5 -7 -6 -16 -8 -19
-4 -4 3 -8 0 -8 -8 -1 -8 -2 -28 -4 -45 -2 -32 27 -80 44 -70 5 4 12 2 16 -4
6 -10 36 3 61 26 15 14 20 43 11 69 -8 22 -57 62 -57 46z"/>
<path d="M3815 2002 c-3 -4 -10 -7 -13 -7 -4 -1 -17 -6 -28 -13 -39 -21 -23
-112 20 -112 9 0 16 -4 16 -9 0 -11 29 -4 52 13 23 17 34 82 16 100 -21 21
-55 36 -63 28z"/>
<path d="M2524 1992 c-43 -28 -37 -122 7 -122 10 0 19 -5 19 -10 0 -7 6 -7 20
0 11 6 20 8 20 5 0 -10 26 18 38 41 8 16 8 27 -3 47 -8 15 -11 27 -7 28 4 0
-2 4 -13 9 -25 11 -67 12 -81 2z"/>
<path d="M2540 1367 c0 -5 -3 -8 -6 -4 -13 13 -42 -33 -42 -68 0 -20 3 -34 6
-31 3 3 11 -3 19 -13 17 -25 78 -21 98 6 22 27 18 73 -7 94 -11 11 -24 19 -27
20 -3 0 -14 2 -23 4 -10 2 -18 -2 -18 -8z"/>
<path d="M3170 1368 c0 -4 -7 -8 -15 -8 -8 0 -15 -5 -15 -11 0 -5 -4 -8 -8 -5
-7 4 -8 -12 -4 -70 2 -27 51 -49 84 -38 52 16 65 80 23 116 -25 22 -65 32 -65
16z"/>
<path d="M3796 1364 c-11 -7 -22 -11 -27 -9 -4 3 -10 -13 -14 -35 -5 -31 -3
-45 12 -63 36 -45 123 -16 123 42 -1 51 -59 91 -94 65z"/>
<path d="M1248 1339 c-7 -15 -16 -25 -20 -23 -11 7 13 -48 28 -65 17 -19 65
-22 87 -7 29 22 38 69 18 98 -13 20 -25 25 -58 25 -37 0 -44 -3 -55 -28z"/>
<path d="M1882 1347 c-15 -16 -20 -30 -16 -42 6 -14 4 -16 -7 -10 -12 8 -12 6
0 -11 25 -32 59 -63 64 -58 4 5 26 11 48 13 14 2 38 66 28 77 -5 6 -6 14 -2
17 3 4 1 7 -5 7 -7 0 -12 6 -12 13 0 8 -15 14 -38 15 -29 2 -43 -3 -60 -21z"/>
</g>
</svg>
